# xmcd CD database file
#
# Track frame offsets:
#	150
#	15427
#	39211
#	53261
#	69568
#	108292
#	127015
#	134780
#	148862
#	183752
#	198915
#	216798
#	230417
#	270644
#	290889
#	309291
#	326396
#
# Disc length: 4592 seconds
#
# Revision: 0
# Processed by: cddbd v1.5.1PL2 Copyright (c) Steve Scherf et al.
# Submitted via: CDex 1.50beta10
#
DISCID=f411ee11
DTITLE=Reba Mcentire  - Collected Works
DYEAR=1900
DGENRE=Country
TTITLE0=All Of You
TTITLE1=Fancy - Extended Verion
TTITLE2=Please Be The One
TTITLE3=One Honest Heart - Live
TTITLE4=Medley Of Hits - Live
TTITLE5=I Got Lost In His Arms
TTITLE6=How Blue - Live
TTITLE7=I Like It That Way
TTITLE8=You Keep Me Hanging On (Classic Paradi
TTITLE9=I Told You So
TTITLE10=Forever Love - Live
TTITLE11=Wrong Night - Live
TTITLE12=You Keep Me Hanging On (Club Remix)
TTITLE13=If Only I Had Knows (Tribute Version)
TTITLE14=Comfort From A Country Quilt
TTITLE15=Sun In The Morning
TTITLE16=You Can't Get A Man With A Gun
EXTD=
EXTT0=
EXTT1=
EXTT2=
EXTT3=
EXTT4=
EXTT5=
EXTT6=
EXTT7=
EXTT8=
EXTT9=
EXTT10=
EXTT11=
EXTT12=
EXTT13=
EXTT14=
EXTT15=
EXTT16=
PLAYORDER=
